#!OML:ASF H:\Dans Jumps\Project 1\Capture day 1\Session 1\subject.ASF
:FULLY-SPECIFIED
:DEGREES
487
root 0.175711 17.839 3.29313 10.2057 -0.449165 -0.751423
lowerback -1.71394 0.247182 -0.35119
upperback 3.15546 0.30251 1.09064
thorax 4.20274 0.119669 1.33746
lowerneck -12.1003 -0.178863 -1.8153
upperneck 32.9181 -0.248682 1.40416
head 13.0059 -0.148433 0.82986
rclavicle 1.14301e-015 2.98177e-015
rhumerus -23.8416 -11.4117 -83.7362
rradius 24.7457
rwrist 33.5798
rhand -22.7056 -29.0595
rfingers 7.12502
rthumb 3.72738 -59.0067
lclavicle 1.14301e-015 2.98177e-015
lhumerus -21.0487 -4.62846 90.9071
lradius 19.2351
lwrist 9.36685
lhand -26.108 -7.16166
lfingers 7.12502
lthumb 0.441398 22.8176
rfemur -15.9346 -2.37108 19.8109
rtibia 20.0063
rfoot -12.0473 -0.0167509
rtoes 19.3119
lfemur -11.4784 5.73551 -18.0944
ltibia 13.6485
lfoot -8.11264 4.60515
ltoes 7.12274
488
root 0.1794 17.8358 3.28878 10.1689 -0.485994 -0.788829
lowerback -1.71076 0.236356 -0.320545
upperback 3.13196 0.287097 1.08957
thorax 4.17703 0.11322 1.31817
lowerneck -12.115 -0.162394 -1.80425
upperneck 32.8881 -0.219626 1.37992
head 12.9957 -0.137627 0.822358
rclavicle 3.13086e-015 6.95746e-015
rhumerus -23.8658 -11.2698 -83.8067
rradius 24.7759
rwrist 33.4752
rhand -22.6093 -28.9891
rfingers 7.12502
rthumb 3.82037 -58.9346
lclavicle 3.13086e-015 6.95746e-015
lhumerus -20.9537 -4.67701 90.8593
lradius 19.2062
lwrist 9.30222
lhand -26.0722 -7.101
lfingers 7.12502
lthumb 0.476025 22.8782
rfemur -15.9034 -2.37622 19.8325
rtibia 19.9918
rfoot -12.0629 0.0491839
rtoes 19.3334
lfemur -11.4265 5.72257 -18.065
ltibia 13.6262
lfoot -8.154 4.6806
ltoes 7.08984
489
root 0.183119 17.8331 3.28377 10.116 -0.525795 -0.831633
lowerback -1.68838 0.227974 -0.286788
upperback 3.11561 0.274736 1.09119
thorax 4.14777 0.108317 1.30001
lowerneck -12.1274 -0.14563 -1.79296
upperneck 32.8572 -0.189274 1.35286
head 12.9846 -0.126566 0.813906
rclavicle -3.8763e-015 -8.34896e-015
rhumerus -23.8783 -11.1447 -83.8702
rradius 24.7939
rwrist 33.3925
rhand -22.501 -28.9273
rfingers 7.12502
rthumb 3.92497 -58.8709
lclavicle -3.8763e-015 -8.34896e-015
lhumerus -20.8429 -4.68073 90.803
lradius 19.1586
lwrist 9.17976
lhand -26.0311 -7.01719
lfingers 7.12502
lthumb 0.515732 22.9619
rfemur -15.853 -2.37312 19.8576
rtibia 19.9698
rfoot -12.0653 0.11714
rtoes 19.3655
lfemur -11.3682 5.70291 -18.0259
ltibia 13.6237
lfoot -8.19363 4.75604
ltoes 7.04441
490
root 0.18671 17.8309 3.27836 10.0485 -0.567061 -0.876615
lowerback -1.65403 0.22076 -0.255465
upperback 3.10923 0.263907 1.09568
thorax 4.12201 0.103983 1.28624
lowerneck -12.1396 -0.128365 -1.78069
upperneck 32.8233 -0.157358 1.32259
head 12.9722 -0.115085 0.804241
rclavicle -3.62782e-015 -7.95139e-015
rhumerus -23.8745 -11.0461 -83.9255
rradius 24.7984
rwrist 33.3374
rhand -22.3786 -28.8793
rfingers 7.12502
rthumb 4.04316 -58.8207
lclavicle -3.62782e-015 -7.95139e-015
lhumerus -20.7071 -4.62881 90.7359
lradius 19.084
lwrist 8.98943
lhand -26.005 -6.9507
lfingers 7.12502
lthumb 0.540964 23.0284
rfemur -15.7862 -2.36544 19.8847
rtibia 19.9441
rfoot -12.0591 0.183077
rtoes 19.4007
lfemur -11.3028 5.68211 -17.98
ltibia 13.6373
lfoot -8.2308 4.82384
ltoes 6.99407
491
root 0.190121 17.8293 3.27275 9.97343 -0.612407 -0.908583
lowerback -1.61563 0.217088 -0.240334
upperback 3.11076 0.25848 1.09738
thorax 4.10198 0.101811 1.279
lowerneck -12.1531 -0.112459 -1.77319
upperneck 32.7871 -0.126462 1.29361
head 12.9591 -0.104411 0.79577
rclavicle -3.08116e-015 -1.19271e-015
rhumerus -23.8581 -10.9924 -83.9673
rradius 24.7957
rwrist 33.3223
rhand -22.2514 -28.8479
rfingers 7.12502
rthumb 4.16604 -58.787
lclavicle -3.08116e-015 -1.19271e-015
lhumerus -20.5516 -4.53186 90.6609
lradius 18.9866
lwrist 8.73855
lhand -25.984 -6.86917
lfingers 7.12502
lthumb 0.561213 23.1098
rfemur -15.7129 -2.35955 19.8984
rtibia 19.9194
rfoot -12.0481 0.247073
rtoes 19.4402
lfemur -11.2359 5.67206 -17.9463
ltibia 13.6636
lfoot -8.27 4.87388
ltoes 6.94038
492
root 0.193082 17.828 3.26721 9.89384 -0.659498 -0.935739
lowerback -1.57869 0.214989 -0.237499
upperback 3.11833 0.255538 1.0998
thorax 4.08896 0.100419 1.27956
lowerneck -12.1603 -0.097336 -1.77133
upperneck 32.7447 -0.0975283 1.27137
head 12.9422 -0.0943788 0.790571
rclavicle -4.87022e-015 -8.15017e-015
rhumerus -23.8336 -10.9765 -83.9987
rradius 24.7833
rwrist 33.3388
rhand -22.1299 -28.8269
rfingers 7.12502
rthumb 4.28338 -58.7636
lclavicle -4.87022e-015 -8.15017e-015
lhumerus -20.3765 -4.38089 90.5738
lradius 18.8522
lwrist 8.40577
lhand -26.0239 -6.91865
lfingers 7.12502
lthumb 0.522625 23.0605
rfemur -15.6375 -2.34958 19.9092
rtibia 19.9002
rfoot -12.0392 0.30103
rtoes 19.491
lfemur -11.1691 5.68323 -17.9156
ltibia 13.6984
lfoot -8.30973 4.89735
ltoes 6.87176
493
root 0.195507 17.8269 3.26181 9.81734 -0.706477 -0.958538
lowerback -1.55121 0.214286 -0.245029
upperback 3.12955 0.254781 1.102
thorax 4.08501 0.0997372 1.28592
lowerneck -12.1742 -0.0834735 -1.7677
upperneck 32.7077 -0.0712218 1.25046
head 12.929 -0.0850991 0.785268
rclavicle 1.3418e-015 -1.19271e-015
rhumerus -23.8031 -11.005 -84.0203
rradius 24.7609
rwrist 33.3897
rhand -22.0248 -28.8182
rfingers 7.12502
rthumb 4.38483 -58.7528
lclavicle 1.3418e-015 -1.19271e-015
lhumerus -20.1873 -4.17057 90.4719
lradius 18.6937
lwrist 8.01214
lhand -26.0689 -7.01695
lfingers 7.12502
lthumb 0.479189 22.9623
rfemur -15.5714 -2.33577 19.9187
rtibia 19.8922
rfoot -12.0352 0.339956
rtoes 19.5312
lfemur -11.108 5.71729 -17.8881
ltibia 13.7343
lfoot -8.34804 4.89409
ltoes 6.78759
494
root 0.197451 17.8259 3.25676 9.74763 -0.750106 -0.972336
lowerback -1.53563 0.212831 -0.267539
upperback 3.14195 0.25353 1.10362
thorax 4.089 0.0983058 1.30014
lowerneck -12.19 -0.071558 -1.76737
upperneck 32.6707 -0.0486027 1.23482
head 12.9163 -0.0771427 0.782079
rclavicle -3.47873e-015 -6.55989e-015
rhumerus -23.7745 -11.0561 -84.0357
rradius 24.7407
rwrist 33.4482
rhand -21.9411 -28.8237
rfingers 7.12502
rthumb 4.46565 -58.7566
lclavicle -3.47873e-015 -6.55989e-015
lhumerus -19.9957 -3.8964 90.3568
lradius 18.5228
lwrist 7.56411
lhand -26.1238 -7.16117
lfingers 7.12502
lthumb 0.426167 22.8182
rfemur -15.5183 -2.3226 19.9219
rtibia 19.8968
rfoot -12.0369 0.36559
rtoes 19.562
lfemur -11.0545 5.77867 -17.8709
ltibia 13.7673
lfoot -8.38609 4.86335
ltoes 6.67535
495
root 0.198937 17.8251 3.25196 9.69359 -0.787678 -0.969722
lowerback -1.53949 0.209966 -0.31075
upperback 3.15144 0.251221 1.1022
thorax 4.10096 0.095715 1.32288
lowerneck -12.2083 -0.0604216 -1.76643
upperneck 32.6361 -0.027431 1.21984
head 12.9052 -0.0696441 0.778863
rclavicle 2.48481e-015 -5.36719e-015
rhumerus -23.7507 -11.1327 -84.0451
rradius 24.7202
rwrist 33.5073
rhand -21.8885 -28.8383
rfingers 7.12502
rthumb 4.5164 -58.7701
lclavicle 2.48481e-015 -5.36719e-015
lhumerus -19.8061 -3.57426 90.2322
lradius 18.3545
lwrist 7.10226
lhand -26.1623 -7.2613
lfingers 7.12502
lthumb 0.389002 22.7181
rfemur -15.4883 -2.30892 19.9107
rtibia 19.9145
rfoot -12.0432 0.374751
rtoes 19.5783
lfemur -11.0166 5.85739 -17.8728
ltibia 13.7924
lfoot -8.42133 4.81666
ltoes 6.53827
496
root 0.200046 17.8245 3.24738 9.6567 -0.818904 -0.952134
lowerback -1.56356 0.204589 -0.372228
upperback 3.15653 0.246319 1.09821
thorax 4.11985 0.091273 1.35318
lowerneck -12.2243 -0.04923 -1.76701
upperneck 32.6012 -0.00630304 1.20637
head 12.8935 -0.0621454 0.776491
rclavicle -3.926e-015 -1.13307e-014
rhumerus -23.7368 -11.2207 -84.0516
rradius 24.7065
rwrist 33.5494
rhand -21.8653 -28.8593
rfingers 7.12502
rthumb 4.53885 -58.7907
lclavicle -3.926e-015 -1.13307e-014
lhumerus -19.6237 -3.22198 90.1032
lradius 18.1946
lwrist 6.66079
lhand -26.1802 -7.30393
lfingers 7.12502
lthumb 0.371675 22.6755
rfemur -15.4822 -2.29176 19.8858
rtibia 19.9431
rfoot -12.0512 0.36853
rtoes 19.5797
lfemur -10.9943 5.94599 -17.8926
ltibia 13.8059
lfoot -8.4543 4.77073
ltoes 6.33929
497
root 0.201016 17.8242 3.24313 9.63432 -0.841994 -0.926278
lowerback -1.60466 0.197743 -0.440073
upperback 3.15535 0.239855 1.09163
thorax 4.14193 0.0858928 1.38436
lowerneck -12.2344 -0.0390686 -1.76464
upperneck 32.5675 0.012586 1.19247
head 12.8812 -0.0553171 0.773119
rclavicle -3.42904e-015 -9.93923e-016
rhumerus -23.7393 -11.323 -84.0549
rradius 24.6992
rwrist 33.5691
rhand -21.868 -28.8741
rfingers 7.12502
rthumb 4.53622 -58.8055
lclavicle -3.42904e-015 -9.93923e-016
lhumerus -19.4585 -2.86142 89.9748
lradius 18.0525
lwrist 6.2627
lhand -26.1801 -7.26546
lfingers 7.12502
lthumb 0.371824 22.714
rfemur -15.4936 -2.27404 19.8531
rtibia 19.9775
rfoot -12.0588 0.353203
rtoes 19.5755
lfemur -10.9847 6.03856 -17.9233
ltibia 13.8072
lfoot -8.4882 4.7412
ltoes 6.04087
498
root 0.202094 17.8242 3.23896 9.62325 -0.854829 -0.899617
lowerback -1.65402 0.18705 -0.504104
upperback 3.14648 0.228218 1.08534
thorax 4.16089 0.0780972 1.41344
lowerneck -12.239 -0.0278595 -1.75998
upperneck 32.5348 0.0331311 1.17597
head 12.868 -0.0478264 0.768564
rclavicle 2.98177e-015 3.57812e-015
rhumerus -23.7583 -11.4285 -84.056
rradius 24.6965
rwrist 33.5656
rhand -21.8884 -28.8926
rfingers 7.12502
rthumb 4.5165 -58.8244
lclavicle 2.98177e-015 3.57812e-015
lhumerus -19.3128 -2.50695 89.8516
lradius 17.9258
lwrist 5.92327
lhand -26.1762 -7.18297
lfingers 7.12502
lthumb 0.375528 22.7964
rfemur -15.5156 -2.26173 19.8199
rtibia 20.0103
rfoot -12.0617 0.338063
rtoes 19.5778
lfemur -10.9868 6.1274 -17.9567
ltibia 13.8007
lfoot -8.52498 4.73797
ltoes 5.62823
